<svg width="90" height="90" viewBox="0 0 90 90" fill="#ffffff" xmlns="http://www.w3.org/2000/svg">
<path d="M82.5 28.2563V63.75C82.5002 66.6195 81.4038 69.3807 79.4352 71.4685C77.4666 73.5563 74.7746 74.8129 71.91 74.9813L71.25 75H18.75C15.8805 75.0002 13.1193 73.9038 11.0315 71.9352C8.94372 69.9666 7.6871 67.2746 7.51875 64.41L7.5 63.75V28.2563L42.9187 51.87L43.3537 52.1175C43.8664 52.368 44.4294 52.4982 45 52.4982C45.5706 52.4982 46.1336 52.368 46.6463 52.1175L47.0813 51.87L82.5 28.2563Z" fill="white"/>
<path d="M71.25 15C75.3 15 78.8513 17.1375 80.8313 20.3513L45 44.2387L9.16876 20.3513C10.1092 18.8243 11.4011 17.5444 12.9367 16.6181C14.4722 15.6918 16.207 15.146 17.9963 15.0262L18.75 15H71.25Z" fill="white"/>
</svg>
