<svg width="193" height="180" viewBox="0 0 193 180" fill="none" xmlns="http://www.w3.org/2000/svg">
<g clip-path="url(#clip0_111_17)">
<path d="M193 144.75C193 150.437 190.741 155.892 186.719 159.913C182.697 163.935 177.243 166.194 171.556 166.194H21.4444C15.757 166.194 10.3025 163.935 6.28093 159.913C2.25932 155.892 0 150.437 0 144.75V48.25C0 42.5626 2.25932 37.1081 6.28093 33.0865C10.3025 29.0649 15.757 26.8055 21.4444 26.8055H171.556C177.243 26.8055 182.697 29.0649 186.719 33.0865C190.741 37.1081 193 42.5626 193 48.25V144.75Z" fill="#CCD6DD"/>
<path d="M64.0653 94.5486L3.41505 155.199C3.2703 155.349 3.21669 155.537 3.09338 155.687C4.91616 158.743 7.45733 161.278 10.5132 163.106C10.6686 162.983 10.8509 162.93 10.9957 162.785L71.6513 102.129C72.6565 101.123 73.221 99.7591 73.2205 98.337C73.22 96.9148 72.6546 95.5511 71.6486 94.5459C70.6426 93.5406 69.2785 92.9762 67.8564 92.9767C66.4343 92.9772 65.0706 93.5426 64.0653 94.5486ZM189.907 155.687C189.794 155.537 189.73 155.349 189.585 155.204L128.94 94.5486C128.442 94.0505 127.851 93.6553 127.201 93.3856C126.55 93.1159 125.853 92.9769 125.149 92.9767C124.445 92.9764 123.748 93.1149 123.097 93.3841C122.446 93.6534 121.855 94.0481 121.357 94.5459C120.859 95.0436 120.464 95.6346 120.194 96.2851C119.924 96.9356 119.785 97.6328 119.785 98.337C119.785 99.0412 119.923 99.7385 120.192 100.389C120.462 101.04 120.856 101.631 121.354 102.129L182.004 162.785C182.144 162.924 182.337 162.983 182.487 163.106C185.54 161.29 188.09 158.739 189.907 155.687Z" fill="#99AAB5"/>
<path d="M171.556 26.8055H21.4444C15.757 26.8055 10.3025 29.0649 6.28093 33.0865C2.25932 37.1081 0 42.5626 0 48.25L0 53.7719L77.8862 131.487C82.7901 136.362 89.4241 139.099 96.3392 139.099C103.254 139.099 109.888 136.362 114.792 131.487L193 53.6593V48.25C193 42.5626 190.741 37.1081 186.719 33.0865C182.697 29.0649 177.243 26.8055 171.556 26.8055Z" fill="#99AAB5"/>
<path d="M171.556 26.8055H21.4445C17.4088 26.8145 13.4579 27.9644 10.0477 30.1224C6.63756 32.2805 3.90703 35.3588 2.17126 39.0021L81.3334 118.17C83.3247 120.161 85.6888 121.741 88.2906 122.818C90.8925 123.896 93.6811 124.451 96.4973 124.451C99.3136 124.451 102.102 123.896 104.704 122.818C107.306 121.741 109.67 120.161 111.661 118.17L190.829 39.0021C189.094 35.3584 186.363 32.2797 182.953 30.1216C179.543 27.9635 175.591 26.8139 171.556 26.8055Z" fill="#E1E8ED"/>
<path d="M80.4166 49.6975C80.4166 45.7839 82.3734 42.8889 85.7777 42.8889H105.185C109.683 42.8889 111.479 45.5158 111.479 48.25C111.479 50.9091 109.608 53.6111 105.93 53.6111H91.4123V64.3333H104.992C108.831 64.3333 110.702 66.9549 110.702 69.6944C110.702 72.3536 108.739 75.0556 104.992 75.0556H91.4123V85.7778H106.638C110.385 85.7778 112.197 88.3994 112.197 91.1389C112.197 93.798 110.305 96.5 106.638 96.5H86.4479C83.0007 96.5 80.4166 93.6532 80.4166 90.131V49.6975Z" fill="#66757F"/>
</g>
<defs>
<clipPath id="clip0_111_17">
<rect width="193" height="193" fill="white"/>
</clipPath>
</defs>
</svg>
