<svg width="85" height="85" viewBox="0 0 85 85" fill="#ffffff" xmlns="http://www.w3.org/2000/svg">
<path d="M42.5035 7.08333C62.0641 7.08333 77.9202 22.9394 77.9202 42.5C77.9202 62.0606 62.0641 77.9167 42.5035 77.9167C36.2445 77.9274 30.0956 76.271 24.6889 73.1177L7.10101 77.9167L11.8893 60.3217C8.73357 54.9133 7.07588 48.7617 7.08685 42.5C7.08685 22.9394 22.9429 7.08333 42.5035 7.08333ZM30.4335 25.8542L29.7252 25.8825C29.2672 25.9141 28.8197 26.0343 28.4077 26.2367C28.0237 26.4545 27.673 26.7265 27.3664 27.0442C26.9414 27.4444 26.7006 27.7915 26.4421 28.1279C25.1321 29.8311 24.4267 31.9221 24.4375 34.0708C24.4446 35.8062 24.8979 37.4956 25.6062 39.0752C27.0548 42.2698 29.4383 45.6521 32.5833 48.7865C33.3412 49.5408 34.085 50.2987 34.8854 51.0035C38.7934 54.4439 43.4501 56.9251 48.4854 58.2498L50.4971 58.5579C51.1523 58.5933 51.8075 58.5437 52.4662 58.5119C53.4975 58.4575 54.5044 58.1783 55.4164 57.6937C55.8798 57.4541 56.3324 57.1942 56.7729 56.9146C56.7729 56.9146 56.9228 56.813 57.2156 56.5958C57.6937 56.2417 57.9877 55.9902 58.3844 55.5758C58.6819 55.2689 58.9298 54.9124 59.1281 54.5062C59.4043 53.929 59.6806 52.8275 59.7939 51.9102C59.8789 51.209 59.8541 50.8265 59.8435 50.5892C59.8293 50.2102 59.5141 49.8171 59.1706 49.6506L57.1093 48.7262C57.1093 48.7262 54.0281 47.384 52.1439 46.5269C51.9467 46.441 51.7355 46.3918 51.5206 46.3817C51.2783 46.3563 51.0333 46.3834 50.8023 46.461C50.5713 46.5386 50.3597 46.6649 50.1818 46.8315C50.1641 46.8244 49.9268 47.0262 47.3662 50.1287C47.2193 50.3262 47.0168 50.4755 46.7847 50.5575C46.5526 50.6395 46.3013 50.6505 46.0629 50.5892C45.8321 50.5276 45.606 50.4495 45.3864 50.3554C44.9473 50.1712 44.795 50.1004 44.4939 49.9729C42.4606 49.0872 40.5784 47.8886 38.9158 46.4206C38.4696 46.031 38.0552 45.606 37.6302 45.1952C36.2369 43.8607 35.0226 42.3512 34.0177 40.7044L33.8087 40.3679C33.6609 40.1405 33.5397 39.8969 33.4475 39.6419C33.3129 39.1212 33.6635 38.7033 33.6635 38.7033C33.6635 38.7033 34.5241 37.7612 34.9243 37.2512C35.3139 36.7554 35.6433 36.2737 35.8558 35.9302C36.2737 35.2573 36.4048 34.5667 36.1852 34.0319C35.1935 31.6094 34.1688 29.1999 33.111 26.8033C32.9021 26.3287 32.2823 25.9887 31.7191 25.9215C31.5279 25.8978 31.3366 25.879 31.1454 25.8648C30.6698 25.8375 30.193 25.8422 29.7181 25.879L30.4335 25.8542Z" fill="white"/>
</svg>
