<svg width="24" height="24" viewBox="0 0 24 24" fill="none" xmlns="http://www.w3.org/2000/svg">
<g clip-path="url(#clip0_1_19)">
<path d="M6.31499 6.176C6.06499 5.538 6.07499 4.809 6.18599 4.142C6.95018 4.37097 7.66788 4.73321 8.30598 5.212C8.58599 5.426 8.95299 5.495 9.29499 5.392C10.1726 5.12944 11.084 4.99736 12 5C12.961 5 13.874 5.14 14.703 5.391C15.045 5.495 15.412 5.425 15.691 5.211C16.3288 4.73231 17.0461 4.37008 17.81 4.141C17.921 4.808 17.93 5.537 17.682 6.174C17.532 6.558 17.607 7 17.89 7.314C18.614 8.117 19 9.04 19 10C19 12.114 17.03 14.187 13.866 14.818C13.074 14.976 12.765 15.973 13.371 16.544C13.76 16.91 14 17.426 14 18V21C14 21.2652 14.1053 21.5196 14.2929 21.7071C14.4804 21.8946 14.7348 22 15 22C15.2652 22 15.5196 21.8946 15.7071 21.7071C15.8946 21.5196 16 21.2652 16 21V18C16 17.43 15.88 16.888 15.666 16.397C18.683 15.35 21 12.993 21 10C21 8.653 20.516 7.415 19.713 6.378C19.923 5.558 19.904 4.732 19.824 4.098C19.753 3.53 19.654 2.786 19.254 2.342C18.659 1.683 17.674 2.071 16.974 2.31C16.2231 2.56409 15.5087 2.91541 14.849 3.355C13.918 3.11741 12.9608 2.99814 12 3C11.006 3 10.047 3.125 9.14899 3.356C8.48931 2.9164 7.7749 2.56508 7.02399 2.311C6.32399 2.071 5.33799 1.683 4.74299 2.342C4.33499 2.794 4.24999 3.479 4.17699 4.061L4.17199 4.099C4.09199 4.734 4.07399 5.561 4.28399 6.382C3.48399 7.418 2.99999 8.654 2.99999 10C2.99999 12.992 5.31698 15.35 8.33398 16.397C8.11561 16.8963 8.00194 17.435 7.99999 17.98L7.83198 18.014C7.11498 18.113 6.65598 18.024 6.34399 17.892C5.58399 17.57 5.19199 16.759 4.71399 16.139C4.41599 15.754 3.98199 15.273 3.31599 15.051C3.19136 15.0095 3.05978 14.993 2.92876 15.0023C2.79775 15.0117 2.66985 15.0467 2.55239 15.1055C2.31515 15.2242 2.13479 15.4323 2.05099 15.684C1.96718 15.9357 1.98678 16.2104 2.1055 16.4476C2.22421 16.6848 2.43229 16.8652 2.68399 16.949C3.24199 17.135 3.62799 18.091 3.98199 18.515C4.35499 18.963 4.85099 19.431 5.56199 19.733C6.24399 20.023 7.04499 20.126 7.99999 20.009V21C7.99999 21.2652 8.10534 21.5196 8.29288 21.7071C8.48041 21.8946 8.73477 22 8.99999 22C9.2652 22 9.51956 21.8946 9.70709 21.7071C9.89463 21.5196 9.99998 21.2652 9.99998 21V18C9.99998 17.426 10.24 16.91 10.629 16.544C11.236 15.972 10.926 14.976 10.134 14.818C6.96898 14.187 4.99999 12.114 4.99999 10C4.99999 9.042 5.38498 8.119 6.10799 7.316C6.39099 7.002 6.46499 6.56 6.31499 6.176Z" fill="white"/>
</g>
<defs>
<clipPath id="clip0_1_19">
<rect width="24" height="24" fill="white"/>
</clipPath>
</defs>
</svg>
