<svg width="83" height="83" viewBox="0 0 83 83" fill="none" xmlns="http://www.w3.org/2000/svg">
<g clip-path="url(#clip0_110_2)">
<path d="M33.0703 36.9609V24.1634H42.3041C47.3515 24.1634 50.3032 26.5341 50.3032 30.5803C50.3032 34.7407 47.1699 36.9609 41.1524 36.9609H33.0703ZM33.0703 56.4763H42.9162C49.0582 56.4763 52.3056 53.9863 52.3056 49.3331C52.3056 44.7422 48.9337 42.3404 42.5219 42.3404H33.0703V56.4763Z" fill="black"/>
<path d="M20.7605 0C15.2573 0 9.97941 2.18615 6.08803 6.07753C2.19665 9.96891 0.010498 15.2468 0.010498 20.75V62.25C0.010498 67.7532 2.19665 73.0311 6.08803 76.9225C9.97941 80.8138 15.2573 83 20.7605 83H62.2605C67.7637 83 73.0416 80.8138 76.933 76.9225C80.8243 73.0311 83.0105 67.7532 83.0105 62.25V20.75C83.0105 15.2468 80.8243 9.96891 76.933 6.07753C73.0416 2.18615 67.7637 0 62.2605 0L20.7605 0ZM26.2592 62.25V18.3897H43.8916C52.1241 18.3897 57.0834 22.5864 57.0834 29.3353C57.0834 33.9211 53.7115 38.0244 49.3903 38.7558V39.2746C55.3196 39.8815 59.2673 44.1041 59.2673 49.8208C59.2673 57.5398 53.6441 62.25 44.2858 62.25H26.2592Z" fill="black"/>
</g>
<defs>
<clipPath id="clip0_110_2">
<rect width="83" height="83" fill="white"/>
</clipPath>
</defs>
</svg>
