<svg width="74" height="74" viewBox="0 0 74 74" fill="none" xmlns="http://www.w3.org/2000/svg">
<g clip-path="url(#clip0_103_85)">
<path d="M56.6562 0H17.3438C7.76506 0 0 7.76506 0 17.3438V56.6562C0 66.2349 7.76506 74 17.3438 74H56.6562C66.2349 74 74 66.2349 74 56.6562V17.3438C74 7.76506 66.2349 0 56.6562 0Z" fill="#0277BD"/>
<path d="M15.538 29.6726L16.3653 38.9058H37.0277V29.6726H15.538ZM37.0275 10.9844H13.875L14.7144 20.2176H37.0275V10.9844ZM37.0275 63.2587V53.6523L36.987 53.663L26.7039 50.8866L26.0466 43.5224H16.7778L18.0713 58.02L36.985 63.2706L37.0275 63.2587Z" fill="#EBEBEB"/>
<path d="M48.3654 38.9058L47.2935 50.8805L36.9957 53.6601V63.266L55.9243 58.02L56.0631 56.46L58.2328 32.1521L58.458 29.6726L60.125 10.9844H36.9957V20.2176H50.0061L49.1661 29.6726H36.9957V38.9058H48.3654Z" fill="white"/>
</g>
<defs>
<clipPath id="clip0_103_85">
<rect width="74" height="74" fill="white"/>
</clipPath>
</defs>
</svg>
