<svg width="82" height="82" viewBox="0 0 82 82" fill="none" xmlns="http://www.w3.org/2000/svg">
<g clip-path="url(#clip0_103_152)">
<path d="M62.7812 0H19.2188C8.60453 0 0 8.60453 0 19.2188V62.7812C0 73.3955 8.60453 82 19.2188 82H62.7812C73.3955 82 82 73.3955 82 62.7812V19.2188C82 8.60453 73.3955 0 62.7812 0Z" fill="#092E20"/>
<path d="M36.0957 16.3359H45.2614V58.7613C40.5596 59.654 37.1076 60.0112 33.3583 60.0112C22.1685 60.0109 16.3359 54.9525 16.3359 45.2509C16.3359 35.9064 22.526 29.8362 32.1081 29.8362C33.596 29.8362 34.7267 29.9547 36.0957 30.3118V16.3359ZM36.0957 37.6915C35.0246 37.335 34.1319 37.2158 33.0012 37.2158C28.3589 37.2158 25.6801 40.0727 25.6801 45.0718C25.6801 49.9527 28.2397 52.6309 32.9416 52.6309C33.9528 52.6309 34.7866 52.5713 36.0957 52.3932V37.6915Z" fill="white"/>
<path d="M59.8426 30.4905V51.7375C59.8426 59.0586 59.3071 62.5698 57.7001 65.6054C56.2119 68.5222 54.2477 70.3669 50.2006 72.3906L41.6896 68.3431C45.7367 66.4389 47.7009 64.7729 48.9504 62.2127C50.2602 59.5941 50.6772 56.5585 50.6772 48.5834V30.4902L59.8426 30.4905ZM50.6772 16.3846H59.8426V25.7883H50.6772V16.3846Z" fill="white"/>
</g>
<defs>
<clipPath id="clip0_103_152">
<rect width="82" height="82" fill="white"/>
</clipPath>
</defs>
</svg>
