<svg width="76" height="76" viewBox="0 0 76 76" fill="none" xmlns="http://www.w3.org/2000/svg">
<g clip-path="url(#clip0_103_168)">
<path d="M58.1875 0H17.8125C7.97493 0 0 7.97493 0 17.8125V58.1875C0 68.0251 7.97493 76 17.8125 76H58.1875C68.0251 76 76 68.0251 76 58.1875V17.8125C76 7.97493 68.0251 0 58.1875 0Z" fill="#242938"/>
<path d="M67.6875 54.3094C66.8233 54.6369 65.869 54.6363 65.0052 54.3078C64.1413 53.9793 63.4278 53.3457 62.9995 52.5267C60.309 48.499 57.3378 44.653 54.4822 40.7244L53.2439 39.0738C49.8435 43.6296 46.4431 48.0038 43.3399 52.5433C42.9357 53.326 42.2608 53.935 41.4408 54.2569C40.6209 54.5788 39.7119 54.5917 38.8832 54.2931L51.6429 37.1756L39.7744 21.7084C40.6288 21.3999 41.5634 21.3957 42.4205 21.6964C43.2776 21.9971 44.0047 22.5844 44.479 23.359C47.2355 27.387 50.2894 31.233 53.3265 35.3103C56.3804 31.266 59.4011 27.4033 62.2238 23.4086C62.6302 22.6386 63.3055 22.0448 64.1212 21.7405C64.9369 21.4361 65.8361 21.4423 66.6475 21.758L62.0421 27.8656C59.9788 30.5891 57.9485 33.3293 55.8027 35.9869C55.6298 36.1417 55.4914 36.3313 55.3967 36.5432C55.302 36.7551 55.2531 36.9846 55.2531 37.2167C55.2531 37.4488 55.302 37.6783 55.3967 37.8902C55.4914 38.1021 55.6298 38.2917 55.8027 38.4465C59.7479 43.6792 63.6598 48.9283 67.6875 54.3094ZM8.3125 36.9609C8.65925 35.3103 8.87359 33.511 9.35245 31.8274C12.2081 21.6757 23.8453 17.4497 31.8511 23.739C36.5391 27.4203 37.7111 32.6364 37.4802 38.5127H11.0693C10.64 49.0111 18.2165 55.3497 27.906 52.1143C29.4778 51.5521 30.8848 50.6073 32.0001 49.3652C33.1154 48.1231 33.9038 46.6228 34.2941 44.9997C34.8059 43.3491 35.6312 43.0685 37.1993 43.5471C36.941 45.5566 36.2305 47.4815 35.1212 49.1769C34.0119 50.8723 32.5327 52.2942 30.7948 53.3357C27.9234 54.9062 24.6288 55.5285 21.3824 55.1134C18.1359 54.6983 15.1039 53.2672 12.7199 51.0248C10.3614 48.3729 8.93529 45.0221 8.65925 41.4838C8.65925 40.9227 8.44461 40.3613 8.32912 39.8332C8.3182 38.8758 8.31266 37.9184 8.3125 36.9609ZM11.1022 36.2511H34.9876C34.8389 28.6416 30.0354 23.2438 23.631 23.1945C16.5 23.0954 11.3994 28.3774 11.0856 36.2182L11.1022 36.2511Z" fill="white"/>
</g>
<defs>
<clipPath id="clip0_103_168">
<rect width="76" height="76" fill="white"/>
</clipPath>
</defs>
</svg>
