<svg width="82" height="82" viewBox="0 0 82 82" fill="none" xmlns="http://www.w3.org/2000/svg">
<g clip-path="url(#clip0_103_124)">
<path d="M62.7812 0H19.2188C8.60453 0 0 8.60453 0 19.2188V62.7812C0 73.3955 8.60453 82 19.2188 82H62.7812C73.3955 82 82 73.3955 82 62.7812V19.2188C82 8.60453 73.3955 0 62.7812 0Z" fill="#F4F2ED"/>
<mask id="mask0_103_124" style="mask-type:luminance" maskUnits="userSpaceOnUse" x="19" y="8" width="44" height="66">
<path d="M19.5391 8.96875H62.2559V73.0312H19.5391V8.96875Z" fill="white"/>
</mask>
<g mask="url(#mask0_103_124)">
<path d="M30.2205 73.0312C36.1143 73.0312 40.8975 68.248 40.8975 62.3543V51.677H30.2205C24.3268 51.677 19.5432 56.4605 19.5432 62.3543C19.5432 68.248 24.3268 73.0312 30.2205 73.0312Z" fill="#0ACF83"/>
<path d="M19.5432 41C19.5432 35.1063 24.3268 30.323 30.2205 30.323H40.8975V51.677H30.2205C24.3268 51.677 19.5432 46.8938 19.5432 41Z" fill="#A259FF"/>
<path d="M19.5432 19.6457C19.5432 13.752 24.3268 8.96875 30.2205 8.96875H40.8975V30.323H30.2205C24.3268 30.323 19.5432 25.5395 19.5432 19.6457Z" fill="#F24E1E"/>
<path d="M40.8975 8.96875H51.5744C57.4682 8.96875 62.2517 13.752 62.2517 19.6457C62.2517 25.5395 57.4682 30.323 51.5744 30.323H40.8975V8.96875Z" fill="#FF7262"/>
<path d="M62.2517 41C62.2517 46.8938 57.4682 51.677 51.5744 51.677C45.6807 51.677 40.8975 46.8938 40.8975 41C40.8975 35.1063 45.6807 30.323 51.5744 30.323C57.4682 30.323 62.2517 35.1063 62.2517 41Z" fill="#1ABCFE"/>
</g>
</g>
<defs>
<clipPath id="clip0_103_124">
<rect width="82" height="82" fill="white"/>
</clipPath>
</defs>
</svg>
