<svg width="72" height="72" viewBox="0 0 72 72" fill="none" xmlns="http://www.w3.org/2000/svg">
<g clip-path="url(#clip0_103_70)">
<path d="M55.125 72H16.875C7.55519 72 0 64.4448 0 55.125V16.875C0 7.55519 7.55519 0 16.875 0H55.125C64.4448 0 72 7.55519 72 16.875V55.125C72 64.4448 64.4448 72 55.125 72Z" fill="#F03C2E"/>
<mask id="mask0_103_70" style="mask-type:luminance" maskUnits="userSpaceOnUse" x="7" y="7" width="58" height="58">
<path d="M7.875 64.125H64.125V7.875H7.875V64.125Z" fill="white"/>
</mask>
<g mask="url(#mask0_103_70)">
<path d="M63.0633 38.5048L38.5048 63.0633C37.9985 63.5702 37.3531 63.9155 36.6504 64.0553C35.9477 64.1951 35.2193 64.1233 34.5575 63.8488C34.1181 63.6667 33.7189 63.3998 33.3827 63.0633L28.2851 57.9656L34.7538 51.4969C36.2585 52.0242 37.9811 51.6639 39.1798 50.465C39.7505 49.8933 40.1488 49.1726 40.3294 48.3853C40.51 47.598 40.4655 46.7757 40.2011 46.0125L46.4361 39.7775C47.9444 40.2978 49.6845 39.9622 50.8886 38.7546C51.4917 38.1517 51.9023 37.3834 52.0686 36.547C52.2349 35.7106 52.1493 34.8437 51.8226 34.056C51.3846 32.9999 50.5452 32.161 49.4889 31.7236C48.4325 31.2862 47.2458 31.2862 46.1894 31.7236C45.6663 31.9404 45.191 32.258 44.7908 32.6585C43.5251 33.9241 43.2124 35.7874 43.8522 37.3466L38.0374 43.1615V27.8595C38.4595 27.6507 38.8452 27.3753 39.1798 27.0439C39.9882 26.2355 40.4424 25.1391 40.4424 23.9958C40.4424 22.8526 39.9882 21.7562 39.1798 20.9478C38.3714 20.1394 37.275 19.6852 36.1318 19.6852C34.9886 19.6852 33.8921 20.1394 33.0837 20.9478C32.4804 21.5504 32.0694 22.3185 31.9029 23.1548C31.7364 23.9911 31.8218 24.858 32.1483 25.6458C32.3651 26.1688 32.683 26.6439 33.0837 27.0439C33.5003 27.4587 33.9626 27.7734 34.4953 27.9844V43.4287C33.9668 43.6447 33.4868 43.9644 33.0837 44.3689C32.4785 44.9735 32.067 45.7446 31.9017 46.5839C31.7364 47.4233 31.8248 48.2928 32.1556 49.0818L25.7749 55.4586L8.93505 38.6364C8.4281 38.1298 8.08282 37.4842 7.94289 36.7813C7.80296 36.0784 7.87467 35.3498 8.14896 34.6877C8.33124 34.2481 8.59836 33.8487 8.93505 33.5123L33.4952 8.95584C33.8315 8.61943 34.2306 8.35251 34.67 8.17031C35.5577 7.80289 36.5549 7.80289 37.4426 8.17031C37.8819 8.35251 38.2811 8.61943 38.6173 8.95584L63.0633 33.363C63.3999 33.6994 63.6669 34.0987 63.8491 34.5383C64.0314 34.9779 64.1252 35.4491 64.1253 35.9249C64.1253 36.4008 64.0315 36.8721 63.8493 37.3117C63.6671 37.7513 63.4 38.1507 63.0633 38.4871" fill="white"/>
</g>
</g>
<defs>
<clipPath id="clip0_103_70">
<rect width="72" height="72" fill="white" transform="matrix(1 0 0 -1 0 72)"/>
</clipPath>
</defs>
</svg>
