<svg width="82" height="82" viewBox="0 0 82 82" fill="none" xmlns="http://www.w3.org/2000/svg">
<path d="M71.34 10.5882C68.8356 8.08383 65.8221 6.83333 62.2961 6.83333H19.6321C16.1061 6.83333 13.0926 8.08383 10.5882 10.5882C8.08381 13.0927 6.83331 16.1062 6.83331 19.6322V62.2961C6.83331 65.8221 8.08381 68.8356 10.5882 71.34C13.0926 73.8444 16.1061 75.0949 19.6321 75.0949H29.5883C30.2375 75.0949 30.7261 75.071 31.0541 75.0266C31.4357 74.9501 31.7801 74.7465 32.0312 74.4492C32.3558 74.1075 32.5198 73.6121 32.5198 72.9629L32.4959 69.9392C32.4822 68.0122 32.4754 66.4883 32.4754 65.3608L31.4504 65.5385C30.8012 65.6581 29.9812 65.7093 28.987 65.6957C27.9507 65.6765 26.9177 65.5725 25.8983 65.3847C24.8132 65.1844 23.7917 64.7275 22.919 64.0522C22.005 63.3608 21.3233 62.4074 20.9646 61.3189L20.5205 60.2939C20.1461 59.4854 19.6758 58.7248 19.1196 58.0287C18.4841 57.1984 17.8384 56.6381 17.1858 56.3408L16.8783 56.1187C16.6639 55.9652 16.4689 55.7862 16.2975 55.5857C16.1338 55.3997 15.999 55.1901 15.8977 54.9639C15.8089 54.7555 15.8841 54.5847 16.1198 54.4514C16.359 54.3147 16.7861 54.2498 17.4113 54.2498L18.2996 54.3865C18.8907 54.5027 19.6253 54.858 20.4966 55.4491C21.3783 56.0502 22.1148 56.8404 22.6525 57.7622C23.3358 58.9751 24.1558 59.901 25.1193 60.5399C26.0828 61.1754 27.0531 61.4966 28.0303 61.4966C29.0075 61.4966 29.8514 61.4214 30.5655 61.2745C31.256 61.1317 31.927 60.9069 32.5642 60.6048C32.8307 58.6232 33.5551 57.0925 34.7406 56.0265C33.2044 55.8759 31.6819 55.6086 30.1862 55.227C28.7266 54.826 27.3229 54.2441 26.0076 53.4947C24.6316 52.7456 23.4161 51.7333 22.4304 50.5154C21.484 49.3298 20.705 47.7752 20.0968 45.8517C19.4921 43.9247 19.188 41.7004 19.188 39.1823C19.188 35.5982 20.3565 32.5472 22.6969 30.0257C21.6036 27.3333 21.7061 24.3096 23.0078 20.9647C23.8688 20.6947 25.1432 20.8963 26.8311 21.5626C28.5189 22.2288 29.7557 22.7994 30.5416 23.2709C31.3274 23.7492 31.9561 24.149 32.431 24.4736C35.2086 23.7006 38.0792 23.312 40.9624 23.3187C43.8973 23.3187 46.74 23.7048 49.4972 24.4736L51.1851 23.4076C52.4833 22.6281 53.8527 21.9737 55.2748 21.4532C56.8465 20.8587 58.0423 20.6982 58.876 20.9647C60.2085 24.313 60.3246 27.3333 59.2279 30.0291C61.5683 32.5472 62.7402 35.5982 62.7402 39.1857C62.7402 41.7038 62.4361 43.9349 61.828 45.8722C61.2232 47.8128 60.4374 49.3674 59.4739 50.5393C58.4708 51.7416 57.2503 52.7442 55.8761 53.4947C54.4411 54.2942 53.0471 54.8717 51.6976 55.227C50.202 55.6099 48.6795 55.8783 47.1431 56.0299C48.6806 57.3624 49.4528 59.4637 49.4528 62.3371V72.9629C49.4528 73.4652 49.5246 73.8717 49.6749 74.1827C49.744 74.3324 49.8425 74.4668 49.9646 74.5778C50.0867 74.6887 50.2299 74.7739 50.3856 74.8284C50.7136 74.9446 51.0006 75.0197 51.2534 75.0471C51.5062 75.0812 51.8684 75.0915 52.3399 75.0915H62.2961C65.8221 75.0915 68.8356 73.841 71.34 71.3366C73.841 68.8356 75.0949 65.8187 75.0949 62.2927V19.6322C75.0949 16.1062 73.8444 13.0927 71.34 10.5882Z" fill="black"/>
</svg>
