<svg width="68" height="68" viewBox="0 0 68 68" fill="none" xmlns="http://www.w3.org/2000/svg">
<g clip-path="url(#clip0_103_90)">
<path d="M52.0625 0H15.9375C7.13546 0 0 7.13546 0 15.9375V52.0625C0 60.8645 7.13546 68 15.9375 68H52.0625C60.8645 68 68 60.8645 68 52.0625V15.9375C68 7.13546 60.8645 0 52.0625 0Z" fill="#242938"/>
<path d="M33.9998 58.4378L43.9772 28.3711H24.0234L34 58.4367L33.9998 58.4378Z" fill="#E24329"/>
<path d="M33.9997 58.4378L24.0234 28.3711H10.0409L33.9997 58.4367V58.4378Z" fill="#FC6D26"/>
<path d="M10.0406 28.3703L7.00798 37.5078C6.73093 38.3408 7.03295 39.2541 7.75757 39.7691L34 58.4378L10.0406 28.3711V28.3703Z" fill="#FCA326"/>
<path d="M10.0406 28.3701H24.0234L18.0139 10.2611C17.7047 9.32955 16.3577 9.32955 16.0491 10.2611L10.0406 28.3709V28.3701Z" fill="#E24329"/>
<path d="M34 58.4378L43.9774 28.3711H57.9607L34 58.4367V58.4378Z" fill="#FC6D26"/>
<path d="M57.9602 28.3703L60.9925 37.5078C61.2691 38.3408 60.966 39.2541 60.2424 39.7691L34 58.4378L57.9602 28.3711V28.3703Z" fill="#FCA326"/>
<path d="M57.9599 28.3701H43.9774L49.9864 10.2611C50.2958 9.32981 51.6426 9.32981 51.9512 10.2611L57.9607 28.3709L57.9599 28.3701Z" fill="#E24329"/>
</g>
<defs>
<clipPath id="clip0_103_90">
<rect width="68" height="68" fill="white"/>
</clipPath>
</defs>
</svg>
