<svg width="74" height="74" viewBox="0 0 74 74" fill="none" xmlns="http://www.w3.org/2000/svg">
<g clip-path="url(#clip0_103_105)">
<path d="M56.6562 0H17.3438C7.76506 0 0 7.76506 0 17.3438V56.6562C0 66.2349 7.76506 74 17.3438 74H56.6562C66.2349 74 74 66.2349 74 56.6562V17.3438C74 7.76506 66.2349 0 56.6562 0Z" fill="#99424F"/>
<path d="M61.6724 36.565C61.6724 33.0832 59.2789 30.1541 56.0654 29.3173L63.2625 8.09375H27.5942L34.8083 29.3844C31.6948 30.2883 29.402 33.167 29.402 36.5814C29.402 39.0922 30.6571 41.3183 32.5652 42.6908C31.8122 43.762 30.9418 44.7498 29.9541 45.6869C28.0963 47.4276 26.0376 48.7666 23.8115 49.6537C21.8028 48.298 20.9325 45.9046 21.7193 43.762C24.7822 42.8249 27.0083 39.9626 27.0083 36.5982C27.0083 32.464 23.6442 29.1164 19.5265 29.1164C15.3923 29.1164 12.0282 32.4808 12.0282 36.615C12.0282 38.6569 12.865 40.5318 14.204 41.8707C14.0869 42.1051 13.9698 42.3393 13.8525 42.5905C12.7309 44.9004 11.459 47.5115 10.9734 50.4405C10.0027 56.2987 11.5929 61.002 15.4258 63.6634C17.5851 65.153 19.9618 65.9062 22.5226 65.9062C26.9247 65.9062 31.3936 63.6969 35.712 61.5544C38.7919 60.0313 41.9719 58.4412 45.1019 57.6711C46.257 57.3867 47.4621 57.2193 48.7342 57.0352C51.3118 56.6669 53.9732 56.2819 56.3666 54.8927C59.1619 53.2693 61.07 50.5576 61.6224 47.4444C62.0406 45.051 61.6224 42.6408 60.5511 40.5318C61.2709 39.3767 61.6724 38.021 61.6724 36.565ZM58.4086 36.565C58.4086 38.8913 56.5172 40.7827 54.1906 40.7827C51.8639 40.7827 49.9728 38.8913 49.9728 36.565C49.9728 35.8117 50.1735 35.0919 50.525 34.4727C50.6619 34.2365 50.8188 34.0125 50.9938 33.803C51.1612 33.6024 51.3621 33.4182 51.5795 33.2509L51.5962 33.2341C51.7301 33.1335 51.881 33.0332 52.0316 32.9326C52.0316 32.9326 52.0483 32.9326 52.0483 32.9158C52.1151 32.8826 52.1822 32.8323 52.2489 32.7988C52.2657 32.7988 52.2825 32.782 52.2992 32.782C52.3663 32.7485 52.4498 32.7152 52.5337 32.6817C52.6172 32.6482 52.701 32.6146 52.7678 32.5811C52.7846 32.5811 52.8013 32.5643 52.8181 32.5643C52.8852 32.5479 52.9519 32.5143 53.019 32.4976C53.0358 32.4976 53.0693 32.4808 53.0861 32.4808C53.1696 32.464 53.2367 32.4473 53.3202 32.4305H53.337L53.5882 32.3805C53.6049 32.3805 53.6382 32.3805 53.6549 32.3637C53.722 32.3637 53.7891 32.347 53.8558 32.347H53.9397C54.0232 32.347 54.107 32.3302 54.2073 32.3302H54.425C54.4921 32.3302 54.5421 32.3302 54.6091 32.347H54.6427C54.7765 32.3637 54.9103 32.3805 55.0442 32.4137C56.9523 32.8155 58.4086 34.5227 58.4086 36.565ZM32.264 11.4414H58.5927L52.5504 29.267C52.2992 29.3173 52.0483 29.4011 51.7971 29.4847L45.4369 16.513L39.0596 29.4011C38.8087 29.3173 38.5407 29.267 38.273 29.217L32.264 11.4414ZM44.2315 35.1087C43.9135 33.5353 43.1102 32.1293 41.9719 31.0916L45.4369 24.0951L48.9348 31.2422C47.8971 32.2799 47.1441 33.6024 46.8426 35.1087H44.2315ZM35.8461 32.464C35.9296 32.4473 35.9967 32.4305 36.0802 32.4137H36.1305C36.1976 32.397 36.2643 32.397 36.3314 32.3805H36.3982C36.4652 32.3805 36.5155 32.3637 36.5823 32.3637H37.2353C37.3021 32.3637 37.3524 32.3805 37.4027 32.3805C37.4362 32.3805 37.4527 32.3805 37.4862 32.397C37.5533 32.4137 37.6036 32.4137 37.6703 32.4305C37.6871 32.4305 37.7039 32.4305 37.7374 32.4473C37.8209 32.464 37.9048 32.4808 37.9716 32.4976H37.9883C38.0554 32.5143 38.1224 32.5311 38.1892 32.5643C38.206 32.5643 38.2227 32.5811 38.2563 32.5811C38.3066 32.5979 38.3734 32.6146 38.4236 32.6482C38.4404 32.6482 38.4572 32.6649 38.4739 32.6649C38.5407 32.6985 38.6078 32.7152 38.6746 32.7485H38.6913C38.7751 32.782 38.8419 32.8155 38.909 32.8658H38.9257C38.9928 32.8994 39.0596 32.9494 39.1266 32.9829C39.1434 32.9829 39.1434 32.9997 39.1602 32.9997C39.227 33.0332 39.2772 33.0832 39.3443 33.1167L39.3608 33.1335C39.5617 33.2841 39.7458 33.4515 39.93 33.6188L39.9467 33.6356C40.1141 33.8197 40.2815 34.0206 40.4153 34.2383C40.8644 34.9249 41.103 35.7278 41.1015 36.5482C41.1015 38.8746 39.2102 40.7659 36.8838 40.7659C34.5571 40.7659 32.6658 38.8746 32.6658 36.5482C32.649 34.5898 34.0047 32.9326 35.8461 32.464ZM19.3759 32.347C21.7025 32.347 23.5939 34.2383 23.5939 36.565C23.5939 38.8916 21.7025 40.7827 19.3759 40.7827C17.0492 40.7827 15.1579 38.8913 15.1579 36.565C15.1579 34.2383 17.0495 32.347 19.3759 32.347ZM58.3083 46.8585C57.94 49.001 56.6175 50.8756 54.6759 51.9971C52.8516 53.0516 50.6088 53.3864 48.2486 53.7211C46.96 53.9052 45.6042 54.1061 44.2986 54.4241C40.8171 55.2777 37.4695 56.9514 34.2224 58.5583C30.0715 60.617 26.1547 62.5586 22.5226 62.5586C20.6313 62.5586 18.9408 62.023 17.3339 60.9017C13.6516 58.3574 13.8357 53.5873 14.271 50.9762C14.6728 48.5324 15.7941 46.2393 16.8654 44.0468C16.9321 43.9126 16.9824 43.7956 17.0495 43.6617C17.4244 43.7973 17.811 43.8981 18.2043 43.9629C17.5684 47.5115 19.3759 51.1771 22.8909 52.9846L23.5268 53.3193L24.213 53.0684C27.1424 52.0307 29.8538 50.3399 32.2472 48.0803C33.6032 46.8085 34.758 45.436 35.7287 43.9462C36.1137 44.0132 36.4988 44.03 36.8838 44.03C40.3653 44.03 43.2943 41.6363 44.1312 38.4228H46.9432C47.78 41.653 50.7091 44.03 54.1906 44.03C55.5798 44.03 56.8687 43.645 57.9735 42.9923C58.4086 44.2474 58.5424 45.5531 58.3083 46.8585Z" fill="white"/>
</g>
<defs>
<clipPath id="clip0_103_105">
<rect width="74" height="74" fill="white"/>
</clipPath>
</defs>
</svg>
