<svg width="64" height="64" viewBox="0 0 64 64" fill="none" xmlns="http://www.w3.org/2000/svg">
<path d="M49 0H15C6.71573 0 0 6.71573 0 15V49C0 57.2843 6.71573 64 15 64H49C57.2843 64 64 57.2843 64 49V15C64 6.71573 57.2843 0 49 0Z" fill="#F0DB4F"/>
<path d="M16.828 53.483L21.7255 50.519C22.6705 52.1943 23.53 53.6118 25.5918 53.6118C27.568 53.6118 28.814 52.8388 28.814 49.8318V29.3823H34.8285V49.9168C34.8285 56.146 31.177 58.9815 25.8495 58.9815C21.0383 58.9815 18.2455 56.4898 16.8278 53.4825M38.0953 52.8385L42.9923 50.0033C44.2815 52.1085 45.957 53.655 48.921 53.655C51.4133 53.655 53.0023 52.409 53.0023 50.6905C53.0023 48.6285 51.3698 47.898 48.6203 46.6955L47.117 46.0508C42.7778 44.2038 39.8993 41.8838 39.8993 36.9863C39.8993 32.4753 43.3363 29.0383 48.7065 29.0383C52.53 29.0383 55.2795 30.3703 57.2555 33.85L52.5728 36.8573C51.5415 35.01 50.425 34.2798 48.7065 34.2798C46.945 34.2798 45.828 35.3968 45.828 36.8573C45.828 38.6615 46.945 39.392 49.5225 40.5093L51.026 41.1535C56.1383 43.3448 59.0168 45.5783 59.0168 50.6045C59.0168 56.018 54.7638 58.982 49.05 58.982C43.4653 58.982 39.8565 56.3185 38.0953 52.8385Z" fill="#323330"/>
</svg>
