<svg width="76" height="76" viewBox="0 0 76 76" fill="none" xmlns="http://www.w3.org/2000/svg">
<g clip-path="url(#clip0_103_52)">
<path d="M58.1875 0H17.8125C7.97493 0 0 7.97493 0 17.8125V58.1875C0 68.0251 7.97493 76 17.8125 76H58.1875C68.0251 76 76 68.0251 76 58.1875V17.8125C76 7.97493 68.0251 0 58.1875 0Z" fill="#242938"/>
<path fill-rule="evenodd" clip-rule="evenodd" d="M57.0092 46.8086C57.2444 46.6735 57.4399 46.479 57.5761 46.2445C57.7124 46.01 57.7846 45.7438 57.7855 45.4726L57.8134 36.5245C57.8142 36.2533 57.8864 35.9871 58.0227 35.7527C58.1588 35.5181 58.3543 35.3236 58.5895 35.1886L63.4401 32.4024C63.7953 32.1986 64.2168 32.144 64.6122 32.2505C65.0076 32.357 65.3447 32.616 65.5494 32.9706C65.685 33.2055 65.7564 33.4719 65.7563 33.7431V50.0107C65.7565 50.2827 65.6848 50.55 65.5485 50.7855C65.4122 51.0209 65.2161 51.2161 64.98 51.3514L46.6744 61.8658C46.4406 61.9999 46.1757 62.0707 45.9061 62.0709C45.6365 62.0712 45.3716 62.001 45.1375 61.8673L30.7714 53.6507C30.5348 53.5154 30.3381 53.3201 30.2012 53.0844C30.0644 52.8487 29.9922 52.581 29.9921 52.3085V44.1058C29.9921 44.0966 30.0031 44.0904 30.0123 44.0948C30.0141 44.0961 30.0163 44.0968 30.0185 44.0968C30.0207 44.0969 30.0229 44.0963 30.0248 44.0952C30.0267 44.0941 30.0283 44.0925 30.0293 44.0905C30.0304 44.0886 30.0308 44.0864 30.0307 44.0842V44.075C30.0307 44.0687 30.034 44.0625 30.0402 44.0595L41.8718 37.2623C41.8825 37.256 41.8778 37.2391 41.8656 37.2391C41.8623 37.239 41.8592 37.2377 41.8569 37.2354C41.8546 37.2331 41.8532 37.2299 41.8531 37.2266L41.8763 29.1846C41.8776 28.9126 41.8071 28.6451 41.6718 28.4092C41.5365 28.1732 41.3413 27.9772 41.1059 27.8409C40.8707 27.7046 40.6036 27.6326 40.3317 27.6324C40.0598 27.6321 39.7926 27.7035 39.5571 27.8395L30.7637 32.9065C30.529 33.0416 30.2629 33.1127 29.9921 33.1127C29.7213 33.1127 29.4552 33.0416 29.2205 32.9065L20.3992 27.827C20.1642 27.6916 19.8977 27.6203 19.6265 27.6205C19.3553 27.6206 19.0889 27.6921 18.854 27.8278C18.6192 27.9634 18.4242 28.1585 18.2886 28.3934C18.153 28.6283 18.0815 28.8947 18.0815 29.1659V43.7006C18.0818 43.9715 18.0108 44.2378 17.8758 44.4726C17.7408 44.7075 17.5464 44.9028 17.3121 45.0389C17.0779 45.1749 16.812 45.2471 16.5411 45.248C16.2701 45.249 16.0037 45.1787 15.7685 45.0443L10.873 42.2456C10.636 42.1101 10.439 41.9143 10.3021 41.6781C10.1653 41.4418 10.0934 41.1735 10.0938 40.9005L10.1371 15.496C10.1377 15.2252 10.2094 14.9592 10.345 14.7248C10.4807 14.4904 10.6755 14.2957 10.9101 14.1603C11.1446 14.0249 11.4106 13.9534 11.6815 13.9531C11.9523 13.9528 12.2185 14.0237 12.4533 14.1586L29.222 23.7901C29.4564 23.9246 29.7219 23.9954 29.9921 23.9954C30.2623 23.9954 30.5278 23.9246 30.7622 23.7901L47.5264 14.1586C47.8817 13.9543 48.3036 13.8996 48.6993 14.0064C49.0949 14.1132 49.432 14.3727 49.6363 14.728C49.7717 14.9628 49.8426 15.2294 49.8426 15.5007V40.9112C49.8427 41.183 49.7711 41.4501 49.6351 41.6854C49.499 41.9208 49.3034 42.1162 49.0678 42.2518L40.2883 47.3079C40.0527 47.4442 39.8571 47.64 39.7213 47.8759C39.5854 48.1117 39.514 48.3791 39.5144 48.6513C39.5147 48.9235 39.5871 49.1908 39.7241 49.4261C39.8612 49.6613 40.0579 49.8561 40.2946 49.9908L45.1375 52.7476C45.3714 52.8811 45.6362 52.951 45.9056 52.9505C46.1749 52.95 46.4395 52.879 46.6729 52.7446L57.0092 46.8086ZM58.0251 24.0142C58.0254 24.2876 58.0982 24.5561 58.236 24.7922C58.3739 25.0284 58.5718 25.2238 58.8097 25.3585C59.0477 25.4931 59.3172 25.5623 59.5906 25.5589C59.864 25.5555 60.1317 25.4797 60.3663 25.3392L65.0049 22.556C65.2339 22.4187 65.4234 22.2246 65.555 21.9924C65.6867 21.7602 65.756 21.4979 65.7563 21.231V15.5592C65.7558 15.3548 65.7147 15.1525 65.6355 14.9641C65.5564 14.7756 65.4407 14.6047 65.2951 14.4612C65.1495 14.3177 64.977 14.2045 64.7874 14.128C64.5978 14.0516 64.395 14.0134 64.1906 14.0158C63.9172 14.019 63.6496 14.0949 63.4152 14.2355L58.7765 17.0187C58.5473 17.1557 58.3576 17.3499 58.2259 17.5821C58.0942 17.8144 58.025 18.0769 58.0251 18.3439V24.0154V24.0142Z" fill="#007FFF"/>
</g>
<defs>
<clipPath id="clip0_103_52">
<rect width="76" height="76" fill="white"/>
</clipPath>
</defs>
</svg>
