<svg width="68" height="68" viewBox="0 0 68 68" fill="none" xmlns="http://www.w3.org/2000/svg">
<g clip-path="url(#clip0_103_35)">
<path d="M34 68C52.7777 68 68 52.7777 68 34C68 15.2223 52.7777 0 34 0C15.2223 0 0 15.2223 0 34C0 52.7777 15.2223 68 34 68Z" fill="black"/>
<path d="M56.4809 59.5074L26.12 20.4H20.4V47.5888H24.9762V26.2113L52.8881 62.2747C54.1459 61.4333 55.3462 60.5088 56.4809 59.5074Z" fill="url(#paint0_linear_103_35)"/>
<path d="M43.4445 20.4H47.9777V47.6H43.4445V20.4Z" fill="url(#paint1_linear_103_35)"/>
</g>
<defs>
<linearGradient id="paint0_linear_103_35" x1="41.1777" y1="44.011" x2="54.5888" y2="60.6332" gradientUnits="userSpaceOnUse">
<stop stop-color="white"/>
<stop offset="1" stop-color="white" stop-opacity="0"/>
</linearGradient>
<linearGradient id="paint1_linear_103_35" x1="45.711" y1="20.4" x2="45.6351" y2="40.3749" gradientUnits="userSpaceOnUse">
<stop stop-color="white"/>
<stop offset="1" stop-color="white" stop-opacity="0"/>
</linearGradient>
<clipPath id="clip0_103_35">
<rect width="68" height="68" fill="white"/>
</clipPath>
</defs>
</svg>
