<svg width="74" height="84" viewBox="0 0 74 84" fill="none" xmlns="http://www.w3.org/2000/svg">
<g clip-path="url(#clip0_103_158)">
<path d="M39.0012 0.526842C37.7455 -0.175939 36.2545 -0.175939 34.9988 0.526842L1.96187 19.5042C0.70618 20.207 0 21.5346 0 22.9402V60.9726C0 62.3785 0.784805 63.7061 1.96187 64.4088L34.9988 83.3859C36.2545 84.089 37.7455 84.089 39.0012 83.3859L72.0381 64.4088C73.2938 63.7061 74 62.3785 74 60.9726V22.9402C74 21.5346 73.2152 20.207 72.0381 19.5042L39.0012 0.526842Z" fill="url(#paint0_linear_103_158)"/>
<mask id="mask0_103_158" style="mask-type:luminance" maskUnits="userSpaceOnUse" x="0" y="-1" width="74" height="85">
<path d="M39.0012 0.526842C37.7455 -0.175939 36.2545 -0.175939 34.9988 0.526842L1.96187 19.5042C0.70618 20.207 0 21.5346 0 22.9402V60.9726C0 62.3785 0.784805 63.7061 1.96187 64.4088L34.9988 83.3859C36.2545 84.089 37.7455 84.089 39.0012 83.3859L72.0381 64.4088C73.2938 63.7061 74 62.3785 74 60.9726V22.9402C74 21.5346 73.2152 20.207 72.0381 19.5042L39.0012 0.526842Z" fill="white"/>
</mask>
<g mask="url(#mask0_103_158)">
<path d="M72.1168 19.5041L38.9223 0.527302C38.6083 0.371384 38.2161 0.215179 37.9022 0.136932L0.706177 63.55C1.0201 63.9404 1.41265 64.2528 1.80461 64.4873L34.9988 83.4644C35.9406 84.0109 37.0393 84.1671 38.0594 83.8547L72.9796 20.2851C72.744 19.9727 72.4304 19.7386 72.1165 19.5044" fill="url(#paint1_linear_103_158)"/>
</g>
<mask id="mask1_103_158" style="mask-type:luminance" maskUnits="userSpaceOnUse" x="0" y="-1" width="74" height="85">
<path d="M39.0012 0.526842C37.7455 -0.175939 36.2545 -0.175939 34.9988 0.526842L1.96187 19.5042C0.70618 20.207 0 21.5346 0 22.9402V60.9726C0 62.3785 0.784805 63.7061 1.96187 64.4088L34.9988 83.3859C36.2545 84.089 37.7455 84.089 39.0012 83.3859L72.0381 64.4088C73.2938 63.7061 74 62.3785 74 60.9726V22.9402C74 21.5346 73.2152 20.207 72.0381 19.5042L39.0012 0.526842Z" fill="white"/>
</mask>
<g mask="url(#mask1_103_158)">
<path d="M72.1951 64.409C73.1368 63.8625 73.843 62.9252 74.1569 61.91L37.7455 0.0586968C36.8037 -0.0975087 35.7836 -0.0195498 34.9205 0.527026L1.96155 19.4265L37.5102 83.9333C37.9808 83.855 38.5303 83.6988 39.0012 83.4644L72.1951 64.409Z" fill="url(#paint2_linear_103_158)"/>
</g>
</g>
<defs>
<linearGradient id="paint0_linear_103_158" x1="5045.91" y1="1467.39" x2="1449.46" y2="7145.65" gradientUnits="userSpaceOnUse">
<stop stop-color="#41873F"/>
<stop offset="0.3288" stop-color="#418B3D"/>
<stop offset="0.6352" stop-color="#419637"/>
<stop offset="0.9319" stop-color="#3FA92D"/>
<stop offset="1" stop-color="#3FAE2A"/>
</linearGradient>
<linearGradient id="paint1_linear_103_158" x1="3128.48" y1="4627.55" x2="12177.4" y2="-312.547" gradientUnits="userSpaceOnUse">
<stop offset="0.1376" stop-color="#41873F"/>
<stop offset="0.4032" stop-color="#54A044"/>
<stop offset="0.7136" stop-color="#66B848"/>
<stop offset="0.9081" stop-color="#6CC04A"/>
</linearGradient>
<linearGradient id="paint2_linear_103_158" x1="-314.904" y1="4197.02" x2="7329.72" y2="4197.02" gradientUnits="userSpaceOnUse">
<stop offset="0.09192" stop-color="#6CC04A"/>
<stop offset="0.2864" stop-color="#66B848"/>
<stop offset="0.5968" stop-color="#54A044"/>
<stop offset="0.8624" stop-color="#41873F"/>
</linearGradient>
<clipPath id="clip0_103_158">
<rect width="74" height="84" fill="white"/>
</clipPath>
</defs>
</svg>
