<svg width="82" height="82" viewBox="0 0 82 82" fill="none" xmlns="http://www.w3.org/2000/svg">
<g clip-path="url(#clip0_103_136)">
<path d="M62.7812 0H19.2188C8.60453 0 0 8.60453 0 19.2188V62.7812C0 73.3955 8.60453 82 19.2188 82H62.7812C73.3955 82 82 73.3955 82 62.7812V19.2188C82 8.60453 73.3955 0 62.7812 0Z" fill="#001E36"/>
<path d="M18.45 57.0284V21.8709C18.45 21.6317 18.5525 21.4952 18.7917 21.4952C19.3725 21.4952 19.9192 21.4952 20.705 21.4609C21.525 21.4267 22.3792 21.4267 23.3017 21.3927C24.2242 21.3584 25.215 21.3584 26.2742 21.3242C27.3332 21.2902 28.3582 21.2902 29.3832 21.2902C32.185 21.2902 34.5082 21.6317 36.4217 22.3492C38.1368 22.9318 39.7007 23.8888 41 25.1509C42.1007 26.2557 42.9513 27.584 43.4942 29.0459C44.0067 30.4809 44.28 31.9502 44.28 33.4877C44.28 36.4261 43.5966 38.8519 42.23 40.7652C40.8632 42.6784 38.95 44.1134 36.7292 44.9334C34.4057 45.7877 31.8432 46.0952 29.0417 46.0952C28.2217 46.0952 27.675 46.0952 27.3332 46.0609C26.9914 46.0267 26.5132 46.0267 25.8642 46.0267V56.9942C25.8982 57.2334 25.7275 57.4384 25.4882 57.4727H18.86C18.5867 57.4727 18.45 57.3359 18.45 57.0284ZM25.8982 28.0892V39.5692C26.3767 39.6034 26.8207 39.6377 27.2307 39.6377H29.0417C30.3742 39.6377 31.7067 39.4327 32.9707 39.0227C34.0642 38.7152 35.0207 38.0659 35.7725 37.2117C36.49 36.3577 36.8317 35.1959 36.8317 33.6927C36.8638 32.625 36.5912 31.5701 36.0457 30.6517C35.465 29.7634 34.645 29.0802 33.6542 28.7042C32.39 28.1917 31.0232 27.9867 29.6225 28.0209C28.7342 28.0209 27.9482 28.0209 27.2992 28.0552C26.6157 28.0209 26.1375 28.0552 25.8982 28.0892ZM65.6 37.4852C64.575 36.9384 63.4817 36.5627 62.3199 36.3234C61.0557 36.0502 59.7917 35.8792 58.4932 35.8792C57.81 35.8452 57.0925 35.9477 56.4432 36.1184C55.9992 36.2209 55.6232 36.4602 55.3842 36.8017C55.2132 37.0752 55.1107 37.4167 55.1107 37.7242C55.1107 38.0317 55.2475 38.3392 55.4525 38.6127C55.76 38.9884 56.1699 39.2959 56.6142 39.5352C57.4064 39.9454 58.2157 40.3215 59.04 40.6627C60.885 41.2777 62.6617 42.1317 64.3017 43.1567C65.4292 43.8742 66.3517 44.8309 67.0007 45.9927C67.5475 47.0859 67.8207 48.2817 67.7867 49.5117C67.8207 51.1177 67.3425 52.7234 66.4542 54.0559C65.5012 55.4198 64.1714 56.4765 62.6275 57.0967C60.9532 57.8142 58.9032 58.1902 56.4432 58.1902C54.8717 58.1902 53.3342 58.0534 51.7967 57.7459C50.5917 57.5379 49.4197 57.1702 48.3117 56.6527C48.0725 56.5159 47.9017 56.2767 47.9357 56.0034V50.0584C47.9357 49.9559 47.97 49.8192 48.0725 49.751C48.175 49.6827 48.2774 49.7167 48.3799 49.7852C49.7124 50.5709 51.1132 51.1177 52.6167 51.4592C53.915 51.8009 55.2817 51.9717 56.6482 51.9717C57.9467 51.9717 58.8692 51.8009 59.4842 51.4934C60.0307 51.2542 60.4067 50.6734 60.4067 50.0584C60.4067 49.5802 60.1332 49.1359 59.5867 48.6917C59.04 48.2477 57.9125 47.7352 56.2382 47.0859C54.5208 46.4806 52.8899 45.6536 51.3867 44.626C50.3159 43.863 49.4288 42.8708 48.79 41.7217C48.2432 40.6284 47.97 39.4327 48.0042 38.2367C48.0042 36.7677 48.4142 35.3667 49.1657 34.1027C50.02 32.7359 51.2842 31.6427 52.7532 30.9592C54.3592 30.1392 56.375 29.7634 58.8007 29.7634C60.2017 29.7634 61.6367 29.8659 63.0375 30.0709C64.0625 30.2077 65.0532 30.4809 65.9757 30.8567C66.1125 30.8909 66.2492 31.0277 66.3175 31.1642C66.3517 31.3009 66.3857 31.4377 66.3857 31.5742V37.1434C66.3857 37.2802 66.3174 37.4167 66.2149 37.4852C65.9074 37.5534 65.7367 37.5534 65.6 37.4852Z" fill="#31A8FF"/>
</g>
<defs>
<clipPath id="clip0_103_136">
<rect width="82" height="82" fill="white"/>
</clipPath>
</defs>
</svg>
