<svg width="96" height="96" viewBox="0 0 96 96" fill="none" xmlns="http://www.w3.org/2000/svg">
<g clip-path="url(#clip0_103_147)">
<path d="M73.5 0H22.5C10.0736 0 0 10.0736 0 22.5V73.5C0 85.9264 10.0736 96 22.5 96H73.5C85.9264 96 96 85.9264 96 73.5V22.5C96 10.0736 85.9264 0 73.5 0Z" fill="#F4F2ED"/>
<path d="M47.7296 10.875C28.6901 10.875 29.8789 19.1318 29.8789 19.1318L29.9003 27.6855H48.0694V30.2543H22.6834C22.6834 30.2543 10.5 28.872 10.5 48.0829C10.5 67.2937 21.1339 66.6131 21.1339 66.6131H27.4804V57.6982C27.4804 57.6982 27.1384 47.0644 37.9447 47.0644H55.965C55.965 47.0644 66.0896 47.2279 66.0896 37.2791V20.8298C66.0896 20.8298 67.6267 10.875 47.7296 10.875ZM37.7111 16.6271C38.1405 16.6268 38.5657 16.7111 38.9625 16.8753C39.3592 17.0394 39.7197 17.2802 40.0233 17.5838C40.327 17.8874 40.5677 18.2479 40.7319 18.6446C40.896 19.0414 40.9803 19.4666 40.98 19.896C40.9803 20.3253 40.8959 20.7505 40.7318 21.1472C40.5676 21.5439 40.3268 21.9044 40.0232 22.208C39.7196 22.5115 39.3591 22.7523 38.9624 22.9164C38.5657 23.0805 38.1405 23.1648 37.7111 23.1645C37.2818 23.1648 36.8567 23.0805 36.46 22.9163C36.0633 22.7522 35.7029 22.5114 35.3993 22.2078C35.0957 21.9043 34.855 21.5438 34.6908 21.1472C34.5267 20.7505 34.4423 20.3253 34.4426 19.896C34.4423 19.4667 34.5266 19.0415 34.6907 18.6447C34.8548 18.248 35.0956 17.8875 35.3992 17.5839C35.7027 17.2803 36.0632 17.0395 36.4599 16.8754C36.8566 16.7112 37.2818 16.6268 37.7111 16.6271Z" fill="url(#paint0_linear_103_147)"/>
<path d="M48.2703 85.4842C67.3098 85.4842 66.1211 77.2279 66.1211 77.2279L66.0997 68.6738H47.9306V66.1054H73.3166C73.3166 66.1054 85.5 67.4872 85.5 48.276C85.5 29.0647 74.8661 29.7461 74.8661 29.7461H68.5196V38.661C68.5196 38.661 68.8616 49.2949 58.0552 49.2949H40.035C40.035 49.2949 29.91 49.131 29.91 59.0798V75.5295C29.91 75.5295 28.3728 85.4842 48.2703 85.4842ZM58.2888 79.7321C57.8595 79.7325 57.4343 79.6482 57.0376 79.484C56.6409 79.3199 56.2804 79.0792 55.9768 78.7756C55.6732 78.472 55.4324 78.1116 55.2682 77.7149C55.104 77.3182 55.0197 76.893 55.02 76.4636C55.0196 76.0343 55.1039 75.609 55.2681 75.2123C55.4323 74.8155 55.673 74.455 55.9766 74.1514C56.2802 73.8478 56.6407 73.607 57.0375 73.4429C57.4343 73.2787 57.8595 73.1944 58.2888 73.1948C58.7182 73.1944 59.1434 73.2787 59.5402 73.4429C59.937 73.607 60.2975 73.8478 60.6011 74.1514C60.9047 74.455 61.1454 74.8155 61.3096 75.2123C61.4738 75.609 61.5581 76.0343 61.5577 76.4636C61.558 76.893 61.4737 77.3182 61.3095 77.7149C61.1453 78.1116 60.9045 78.472 60.6009 78.7756C60.2973 79.0792 59.9368 79.3199 59.5401 79.484C59.1434 79.6482 58.7182 79.7325 58.2888 79.7321Z" fill="url(#paint1_linear_103_147)"/>
</g>
<defs>
<linearGradient id="paint0_linear_103_147" x1="17.7075" y1="17.586" x2="54.8749" y2="54.3825" gradientUnits="userSpaceOnUse">
<stop stop-color="#387EB8"/>
<stop offset="1" stop-color="#366994"/>
</linearGradient>
<linearGradient id="paint1_linear_103_147" x1="40.521" y1="41.2144" x2="80.4345" y2="78.9457" gradientUnits="userSpaceOnUse">
<stop stop-color="#FFE052"/>
<stop offset="1" stop-color="#FFC331"/>
</linearGradient>
<clipPath id="clip0_103_147">
<rect width="96" height="96" fill="white"/>
</clipPath>
</defs>
</svg>
