<svg width="76" height="67" viewBox="0 0 76 67" fill="none" xmlns="http://www.w3.org/2000/svg">
<g clip-path="url(#clip0_103_33)">
<path d="M62.4871 21.6938C61.6783 21.4192 60.8626 21.1648 60.0409 20.9307C60.1789 20.3724 60.306 19.8208 60.4188 19.2789C62.2707 10.3805 61.0601 3.21183 56.9249 0.851554C52.9601 -1.41117 46.4761 0.948234 39.9276 6.58946C39.2822 7.1464 38.6511 7.71941 38.035 8.30795C37.6226 7.91661 37.2028 7.53286 36.776 7.1569C29.9128 1.12514 23.0336 -1.41704 18.9029 0.949997C14.9417 3.21977 13.7688 9.95885 15.436 18.392C15.6019 19.2273 15.7892 20.0582 15.9977 20.884C15.024 21.1578 14.0843 21.4494 13.1851 21.7597C5.13861 24.5366 0 28.8884 0 33.4024C0 38.0645 5.51653 42.7407 13.8973 45.5761C14.5768 45.805 15.2619 46.0171 15.952 46.2123C15.7279 47.1018 15.5289 47.9972 15.3553 48.8976C13.7658 57.1845 15.007 63.7643 18.9575 66.0196C23.0378 68.3488 29.8861 65.955 36.5542 60.1851C37.0949 59.7159 37.6237 59.2336 38.1401 58.7384C38.8074 59.3756 39.4924 59.9944 40.1945 60.5938C46.6539 66.0955 53.0332 68.317 56.9798 66.0555C61.0562 63.7196 62.3812 56.6511 60.6611 48.0513C60.5256 47.3776 60.3736 46.7072 60.2054 46.0407C60.6863 45.8997 61.1583 45.7545 61.6185 45.6034C70.3312 42.7462 76 38.1268 76 33.4024C76 28.872 70.6954 24.4908 62.4871 21.6938ZM60.5975 42.5532C60.1815 42.6891 59.756 42.8209 59.321 42.9484C58.3591 39.9343 57.0612 36.7295 55.4726 33.418C56.9884 30.1855 58.2365 27.0215 59.1713 24.0271C59.9489 24.2498 60.7032 24.4846 61.4306 24.7324C68.4635 27.1291 72.7534 30.6721 72.7534 33.4024C72.7534 36.3104 68.1203 40.0856 60.5975 42.5532ZM57.4762 48.6755C58.2368 52.478 58.3451 55.9162 57.8413 58.6041C57.3889 61.0193 56.4787 62.6294 55.3529 63.2744C52.958 64.6467 47.8361 62.863 42.3121 58.1577C41.6591 57.6003 41.0219 57.0251 40.4011 56.4328C42.5428 54.1145 44.683 51.4195 46.7718 48.4263C50.4459 48.1036 53.917 47.5758 57.0647 46.8556C57.2201 47.475 57.3572 48.0817 57.4762 48.6755ZM25.9101 63.0373C23.5701 63.8551 21.7063 63.8786 20.5797 63.2356C18.1824 61.8671 17.1858 56.5838 18.5452 49.4971C18.7068 48.6597 18.8918 47.8268 19.1 46.9996C22.2131 47.6813 25.6589 48.1715 29.3416 48.4671C31.4447 51.396 33.6466 54.0881 35.8658 56.4454C35.3941 56.8971 34.9114 57.3372 34.4179 57.7654C31.469 60.3167 28.5143 62.1269 25.9101 63.0373ZM14.9477 42.5353C11.2418 41.2814 8.18128 39.6519 6.08356 37.8738C4.19841 36.276 3.24692 34.6895 3.24692 33.4024C3.24692 30.663 7.37259 27.169 14.2539 24.7944C15.089 24.5064 15.963 24.2346 16.8699 23.9795C17.8211 27.0415 19.0686 30.2431 20.574 33.4806C19.049 36.7659 17.7837 40.0186 16.8233 43.1168C16.1934 42.9382 15.568 42.7443 14.9477 42.5353ZM18.6224 17.7746C17.1941 10.5495 18.1426 5.0993 20.5298 3.73138C23.0722 2.27442 28.6945 4.35172 34.6204 9.56009C35.0068 9.90047 35.387 10.2478 35.7607 10.6018C33.5525 12.9489 31.3708 15.6209 29.2864 18.5325C25.712 18.8604 22.2906 19.387 19.1449 20.0926C18.951 19.3245 18.7768 18.5514 18.6224 17.7746ZM51.4054 25.7879C50.6624 24.5175 49.8918 23.2631 49.0942 22.0256C51.5191 22.3292 53.8424 22.732 56.0242 23.2246C55.3693 25.3027 54.5529 27.4752 53.5919 29.7027C52.8895 28.3835 52.1605 27.0783 51.4054 25.7879ZM38.0365 12.8989C39.534 14.5049 41.0338 16.2977 42.5089 18.2431C39.5164 18.1031 36.5189 18.1026 33.5264 18.2413C35.003 16.3139 36.5156 14.5234 38.0365 12.8989ZM24.5818 25.8096C23.8362 27.0896 23.1208 28.3867 22.4363 29.6998C21.4911 27.4802 20.6821 25.2977 20.0215 23.1902C22.1899 22.71 24.5023 22.3174 26.9117 22.0194C26.1053 23.2645 25.3284 24.5285 24.5818 25.8096ZM26.9809 45.0137C24.4916 44.7386 22.1445 44.3663 19.9767 43.8991C20.6477 41.7539 21.4745 39.525 22.4402 37.2578C23.1274 38.5719 23.8457 39.8697 24.5946 41.1503C25.3647 42.4668 26.1621 43.7562 26.9809 45.0137ZM38.1262 54.1321C36.5872 52.4889 35.0523 50.6708 33.5534 48.7154C35.0087 48.7718 36.4922 48.8006 38 48.8006C39.5491 48.8006 41.0804 48.7663 42.5876 48.6998C41.1077 50.6905 39.6135 52.5112 38.1262 54.1321ZM53.6225 37.142C54.6384 39.4342 55.4945 41.6513 56.1744 43.7598C53.971 44.2576 51.5918 44.6584 49.085 44.9561C49.8883 43.6956 50.6662 42.4194 51.4182 41.1283C52.1827 39.8159 52.9177 38.4868 53.6225 37.142ZM48.6059 39.5226C47.4546 41.5021 46.2386 43.4441 44.9599 45.3454C42.6436 45.5079 40.3221 45.5886 38 45.5873C35.6348 45.5873 33.3343 45.5144 31.119 45.3722C29.8069 43.4753 28.5677 41.5299 27.4042 39.5402C26.2461 37.5612 25.1647 35.5392 24.1618 33.4788C25.1622 31.4179 26.2406 29.395 27.3947 27.4144L27.3944 27.4147C28.548 25.4335 29.7773 23.4965 31.0795 21.6077C33.3397 21.4385 35.6574 21.3503 37.9997 21.3503C40.3527 21.3503 42.6737 21.4394 44.9332 21.6098C46.2223 23.4957 47.4438 25.4261 48.5952 27.3974C49.753 29.3737 50.8457 31.3867 51.8715 33.4332C50.8562 35.5007 49.767 37.5318 48.6059 39.5226ZM55.3034 3.63529C57.8482 5.08813 58.838 10.9468 57.239 18.6298C57.1365 19.1203 57.0227 19.6189 56.8976 20.1255C53.7442 19.405 50.3203 18.8693 46.7355 18.5363C44.6473 15.5927 42.4834 12.9165 40.3112 10.5998C40.8805 10.0566 41.4633 9.52747 42.0592 9.01292C47.6701 4.17981 52.9141 2.27148 55.3034 3.63529ZM38 26.6848C41.748 26.6848 44.7866 29.6924 44.7866 33.4024C44.7866 37.1124 41.748 40.12 38 40.12C34.252 40.12 31.2134 37.1124 31.2134 33.4024C31.2134 29.6924 34.252 26.6848 38 26.6848Z" fill="#00D8FF"/>
</g>
<defs>
<clipPath id="clip0_103_33">
<rect width="76" height="67" fill="white"/>
</clipPath>
</defs>
</svg>
