<svg width="76" height="76" viewBox="0 0 76 76" fill="none" xmlns="http://www.w3.org/2000/svg">
<path d="M63.7367 1.19461L59.6315 1.45052L59.9515 9.98686C59.9682 10.4589 59.4237 10.7344 59.0526 10.4417L56.3035 8.27449L53.0468 10.7457C52.963 10.8094 52.8627 10.8478 52.7578 10.8566C52.6528 10.8654 52.5476 10.8442 52.4543 10.7954C52.361 10.7465 52.2835 10.6722 52.2309 10.5809C52.1784 10.4897 52.1529 10.3854 52.1574 10.2802L52.5237 1.89464L11.7996 4.44124C10.8309 4.5016 9.92411 4.93827 9.27292 5.65802C8.62173 6.37777 8.2777 7.32356 8.31429 8.29349L10.6062 69.3535C10.6412 70.2865 11.0257 71.1721 11.6835 71.8346C12.3413 72.4971 13.2241 72.888 14.1568 72.9297L63.8014 75.1586C64.3033 75.1809 64.8044 75.1014 65.2747 74.9249C65.7451 74.7483 66.1748 74.4784 66.538 74.1315C66.9013 73.7845 67.1904 73.3674 67.388 72.9055C67.5856 72.4436 67.6875 71.9465 67.6875 71.4441V4.90674C67.6877 4.39869 67.5837 3.89601 67.3821 3.42972C67.1804 2.96342 66.8852 2.54343 66.5149 2.19567C66.1447 1.84785 65.7073 1.57958 65.2295 1.4074C64.7516 1.23523 64.2436 1.16281 63.7367 1.19461ZM39.1198 13.7744C48.8027 13.7744 54.0906 18.9537 54.0906 28.8076C52.782 29.8246 43.035 30.5175 43.035 29.0706C43.2405 23.5487 40.7687 23.3071 39.3953 23.3071C38.0903 23.3071 35.8928 23.7001 35.8928 26.6582C35.8928 33.9542 54.7087 33.5605 54.7087 48.2849C54.7087 56.5677 47.9786 61.1426 39.3953 61.1426C30.5366 61.1426 22.7959 57.5587 23.6699 45.1333C24.013 43.6745 35.2747 44.0212 35.2747 45.1333C35.1381 50.2603 36.3049 51.7685 39.257 51.7685C41.5233 51.7685 42.5541 50.5198 42.5541 48.4161C42.5541 40.9224 24.013 40.66 24.013 26.9218C24.013 19.0338 29.4381 13.7744 39.1198 13.7744Z" fill="#FF4785"/>
</svg>
