<svg width="66" height="66" viewBox="0 0 66 66" fill="none" xmlns="http://www.w3.org/2000/svg">
<g clip-path="url(#clip0_103_65)">
<path d="M0 22.8801C0 12.0942 0 6.70132 3.35079 3.35079C6.70158 0.000257671 12.094 0 22.8801 0H43.1202C53.9058 0 59.2984 0 62.6495 3.35079C66 6.70132 66 12.094 66 22.8801V43.1202C66 53.9058 66 59.2984 62.6492 62.6495C59.2984 66 53.906 66 43.1199 66H22.8803C12.0945 66 6.70158 66 3.35105 62.6492C0.000515588 59.2984 0 53.906 0 43.1199V22.8801Z" fill="#4945FF"/>
<path d="M45.54 20.0199H23.3199V31.35H34.65V42.6798H45.9799V20.46C45.9799 20.2169 45.7829 20.0199 45.54 20.0199Z" fill="white"/>
<path d="M34.21 31.35H34.65V31.7901H34.21V31.35Z" fill="white"/>
<path d="M23.3199 31.35H34.2099C34.4531 31.35 34.65 31.547 34.65 31.7898V42.6798H23.76C23.7022 42.6799 23.645 42.6685 23.5916 42.6464C23.5382 42.6243 23.4897 42.5919 23.4488 42.5511C23.408 42.5102 23.3756 42.4618 23.3534 42.4084C23.3313 42.355 23.3199 42.2978 23.3199 42.24V31.35ZM34.65 42.6798H45.9798L35.0254 53.6343C34.887 53.773 34.65 53.6748 34.65 53.4791V42.6798ZM23.3199 31.35H12.5209C12.325 31.35 12.227 31.1128 12.3655 30.9744L23.3199 20.0199V31.35Z" fill="#9593FF"/>
</g>
<defs>
<clipPath id="clip0_103_65">
<rect width="66" height="66" fill="white"/>
</clipPath>
</defs>
</svg>
