<svg width="74" height="74" viewBox="0 0 74 74" fill="none" xmlns="http://www.w3.org/2000/svg">
<g clip-path="url(#clip0_103_39)">
<path d="M56.6562 0H17.3438C7.76506 0 0 7.76506 0 17.3438V56.6562C0 66.2349 7.76506 74 17.3438 74H56.6562C66.2349 74 74 66.2349 74 56.6562V17.3438C74 7.76506 66.2349 0 56.6562 0Z" fill="url(#paint0_linear_103_39)"/>
<path d="M3.32044 37.3119L17.8614 43.2041V47.3288L0.647766 39.3533V36.9332L3.32044 37.3119ZM17.8614 32.4721L3.34154 38.4482L0.648055 38.743V36.3019L17.8611 28.3475L17.8614 32.4721ZM69.7713 38.1536L54.8094 32.3247V28.3053L72.7804 36.2597V38.7219L69.7713 38.1536ZM54.8094 43.2883L69.8135 37.333L72.7804 36.891V39.3322L54.8094 47.3077V43.2883Z" fill="white"/>
<path fill-rule="evenodd" clip-rule="evenodd" d="M50.8973 17.6614C50.814 18.9813 50.2194 20.3595 50.3851 21.6427C51.4237 23.4794 53.7096 23.7722 55.5954 23.8982C56.902 24.1318 56.8855 23.2666 56.7979 22.2948L56.8138 17.634C54.8415 17.6412 52.8687 17.6146 50.8973 17.6614ZM35.3454 21.3528C32.1345 21.8979 28.8797 23.4323 26.2085 25.2794C24.0584 26.9528 28.0541 28.5744 29.5038 28.8455C32.4204 28.8811 35.0072 26.9137 36.9231 24.8718C37.5487 24.0133 38.33 22.6989 37.544 21.7037C36.944 21.1834 36.0713 21.3094 35.3454 21.3528ZM42.178 26.0228C39.538 26.5258 37.026 27.6138 34.8034 29.1288C33.174 29.6405 31.831 31.4295 33.8501 32.3259C35.9704 34.0154 38.4277 33.6015 40.3803 32.4608C42.1685 31.398 44.1 30.0865 44.9273 28.0856C45.7086 25.8936 43.6927 25.8124 42.178 26.0228ZM49.6673 34.5164C49.1756 36.5699 47.1077 37.5035 46.0075 39.1307C45.1079 40.3176 45.5245 41.7158 46.5486 42.65C47.0473 43.684 47.9214 44.2618 48.8588 43.3637C51.2731 41.7224 51.9408 38.5254 51.8405 35.7553C52.0188 34.6112 50.7062 35.6454 49.6673 34.5164ZM40.4801 38.3733C37.2741 38.922 34.0675 40.4841 31.3951 42.3283C29.3205 43.9994 33.2278 45.5597 34.6893 45.8072C37.66 45.8115 40.3098 43.897 42.1881 41.7227C42.8414 40.8593 43.6331 39.1824 42.3396 38.4959C41.7612 38.2508 41.0897 38.3227 40.4801 38.3733Z" fill="#B956A6"/>
<path fill-rule="evenodd" clip-rule="evenodd" d="M26.2085 25.2794C23.7427 26.266 21.3643 27.4638 19.0154 28.7184C18.5789 30.3414 18.929 32.3513 18.816 34.1311C18.8073 41.449 18.8113 48.7672 18.8102 56.0851H24.2503C25.3488 55.0508 26.7247 54.2937 27.918 53.3546C32.5123 50.0596 37.1052 46.7518 41.6935 43.466C42.0312 43.6178 41.8149 41.4799 41.0744 42.9648C39.3195 44.6162 36.9902 45.9745 34.5248 45.8418C33.1257 45.3817 30.8705 44.6009 30.8563 42.8865C31.8411 41.727 29.0392 43.4935 28.2726 43.7464C25.7803 44.9431 23.347 46.2795 20.8495 47.4539C21.4496 46.8093 22.5723 46.2084 23.3684 45.569C29.0551 41.4868 34.7404 37.3888 40.4407 33.3098C41.5371 32.5401 42.5963 31.7003 43.7265 30.9809C43.8297 31.3795 44.0234 29.0751 43.1828 30.4938C41.4692 32.1923 39.1579 33.4567 36.7202 33.474C35.3492 33.0578 32.4291 32.0625 33.0792 30.2923C33.3963 29.6711 30.1342 31.6165 31.5755 30.5195C33.1095 29.3985 34.6557 28.2975 36.2016 27.1881C36.9824 27.1294 36.8162 24.2292 35.7553 26.1C33.9732 27.6659 31.6318 29.0985 29.1774 28.7588C27.7986 28.3619 26.1443 27.5933 25.643 26.1515C25.4771 25.8052 26.5715 25.2655 26.2085 25.2794ZM36.4236 27.0695C36.6714 26.9268 36.2869 27.4606 36.4236 27.0695Z" fill="#FCCC44"/>
<path fill-rule="evenodd" clip-rule="evenodd" d="M52.0021 23.3418C51.2323 27.0175 50.3908 30.8646 49.6673 34.5161C51.7462 37.1361 51.9477 32.8609 52.3113 31.6521C52.899 29.1254 53.5951 27.2175 53.6688 24.6015C53.8249 23.7086 52.7756 23.1681 52.0021 23.3418ZM54.3871 26.224C54.4819 26.2949 54.3221 26.6007 54.3871 26.224ZM51.9619 34.4664C52.0619 34.6817 52.0619 34.2507 51.9619 34.4664Z" fill="#62777F"/>
<path fill-rule="evenodd" clip-rule="evenodd" d="M53.3656 23.758C54.0142 27.4008 51.8656 31.8264 51.1629 35.261C52.7585 34.0868 53.9914 28.7594 54.3065 26.6741C54.3877 26.4356 54.4877 25.8355 54.5094 25.8139C54.6097 25.3077 55.5442 24.4501 55.5954 23.8982C56.1394 23.5144 52.9216 23.4528 53.3656 23.758ZM52.0425 34.4664C51.9422 34.6817 51.9422 34.2507 52.0425 34.4664Z" fill="#4E5E67"/>
<path fill-rule="evenodd" clip-rule="evenodd" d="M26.2625 25.3401C25.3629 26.2408 25.7006 26.0208 26.37 25.2719L26.2625 25.3401ZM35.9924 25.7861C34.9503 27.352 31.1925 28.6614 30.7193 28.7629C32.9797 28.3394 35.0867 26.9331 36.5693 25.286C36.3337 25.391 36.1938 25.6375 35.9924 25.7861ZM25.6445 26.2946C26.2061 27.6451 28.2484 28.5423 29.2407 28.7516C27.8859 28.3151 26.2911 27.541 25.6445 26.2946ZM36.3427 27.0756C36.0591 27.4103 35.0491 27.911 34.5167 28.4024C33.3746 29.2447 32.1932 30.0275 31.0641 30.891C31.783 30.86 33.8897 29.2864 32.8098 30.8831C33.7249 32.4582 35.7175 33.5535 37.5342 33.4535C39.9334 33.0768 42.1459 31.7503 43.7363 29.9055C41.8057 31.816 39.2533 33.6139 36.4288 33.3662C35.0619 33.0505 31.3266 31.121 33.8253 29.7685C34.7063 29.0438 36.2253 28.6643 36.3973 27.3907C36.3612 27.2317 36.6575 27.0765 36.3427 27.0756ZM29.5038 28.8455C30.4129 28.9643 30.4129 28.727 29.5038 28.8455ZM43.6687 31.0207C40.0615 33.5339 36.5066 36.1452 32.9306 38.7034C28.8779 41.6039 24.8426 44.515 20.7911 47.4132C22.3145 46.8995 23.8407 45.8965 25.354 45.2036C27.4381 44.1011 29.6356 43.2302 31.5856 41.8909C35.4411 39.6212 39.5186 37.4587 42.4841 33.9862C43.1313 33.2272 43.7803 32.0053 43.8092 31.1835C43.7158 31.2098 43.7866 30.8548 43.6687 31.0207ZM31.3951 42.328C30.7462 43.0614 30.4825 43.5854 31.1561 42.6529C31.1442 42.761 31.7027 42.0739 31.3951 42.328ZM41.2683 42.6789C39.5588 44.4815 37.0304 45.7817 34.658 45.8693C37.4007 45.8892 39.875 44.2612 41.7331 42.3407C41.6112 42.1933 41.364 42.6841 41.2683 42.6789ZM41.7907 43.2455C36.0473 47.4265 30.1056 51.7633 24.3428 55.9293C25.2505 56.214 27.2274 56.3475 28.1296 55.1852C30.0489 53.8607 32.2068 52.8869 34.1325 51.5445C36.9211 49.7349 39.9068 47.7572 41.4906 44.7159C41.5661 44.3081 42.1266 43.5744 41.7907 43.2455ZM30.8603 43.5108C31.1269 44.6359 34.4586 45.9271 34.0973 45.68C32.8687 45.2493 31.6501 44.5781 30.8603 43.5108Z" fill="#DC9624"/>
</g>
<defs>
<linearGradient id="paint0_linear_103_39" x1="0" y1="74" x2="74" y2="0" gradientUnits="userSpaceOnUse">
<stop stop-color="#DB7093"/>
<stop offset="1" stop-color="#F3B661"/>
</linearGradient>
<clipPath id="clip0_103_39">
<rect width="74" height="74" fill="white"/>
</clipPath>
</defs>
</svg>
