<svg width="86" height="86" viewBox="0 0 86 86" fill="none" xmlns="http://www.w3.org/2000/svg">
<g clip-path="url(#clip0_103_48)">
<path d="M65.8438 0H20.1562C9.02426 0 0 9.02426 0 20.1562V65.8438C0 76.9757 9.02426 86 20.1562 86H65.8438C76.9757 86 86 76.9757 86 65.8438V20.1562C86 9.02426 76.9757 0 65.8438 0Z" fill="#242938"/>
<path fill-rule="evenodd" clip-rule="evenodd" d="M27.8828 36.9531C29.8984 28.8906 34.9378 24.8594 43 24.8594C55.0938 24.8594 56.6055 33.9297 62.6523 35.4414C66.6839 36.4496 70.2109 34.9378 73.2344 30.9062C71.2191 38.9684 66.1794 43 58.1172 43C46.0234 43 44.5117 33.9297 38.4648 32.418C34.4333 31.4102 30.9062 32.9219 27.8828 36.9531ZM12.7656 55.0938C14.7812 47.0316 19.8203 43 27.8828 43C39.9766 43 41.4883 52.0703 47.5352 53.582C51.5667 54.5902 55.0938 53.0785 58.1172 49.0469C56.1019 57.109 51.0622 61.1406 43 61.1406C30.9062 61.1406 29.3945 52.0703 23.3477 50.5586C19.3164 49.5504 15.7891 51.0622 12.7656 55.0938Z" fill="url(#paint0_linear_103_48)"/>
</g>
<defs>
<linearGradient id="paint0_linear_103_48" x1="29.0586" y1="24.8594" x2="54.9258" y2="62.3164" gradientUnits="userSpaceOnUse">
<stop stop-color="#32B1C1"/>
<stop offset="1" stop-color="#14C6B7"/>
</linearGradient>
<clipPath id="clip0_103_48">
<rect width="86" height="86" fill="white"/>
</clipPath>
</defs>
</svg>
