<svg width="74" height="74" viewBox="0 0 74 74" fill="none" xmlns="http://www.w3.org/2000/svg">
<g clip-path="url(#clip0_103_22)">
<path d="M56.6562 0H17.3438C7.76506 0 0 7.76506 0 17.3438V56.6562C0 66.2349 7.76506 74 17.3438 74H56.6562C66.2349 74 74 66.2349 74 56.6562V17.3438C74 7.76506 66.2349 0 56.6562 0Z" fill="#007ACC"/>
<path d="M16.3641 37.2454L16.3407 40.2759H25.9723V67.6441H32.7852V40.2759H42.4167V37.3041C42.4167 35.6596 42.3818 34.2854 42.3346 34.2502C42.2994 34.2033 36.4381 34.1796 29.3317 34.1915L16.3994 34.2267L16.3641 37.2454ZM59.7108 34.1406C61.59 34.6106 63.0231 35.4446 64.3387 36.8069C65.02 37.5353 66.03 38.8627 66.1123 39.1798C66.1358 39.2738 62.9173 41.4351 60.9676 42.6448C60.8971 42.6919 60.615 42.3864 60.2979 41.9167C59.3466 40.5306 58.3481 39.9314 56.821 39.8259C54.5776 39.673 53.1329 40.8477 53.1447 42.8093C53.1447 43.3848 53.2268 43.7253 53.4618 44.1953C53.955 45.2172 54.8713 45.828 57.7492 47.073C63.0466 49.3519 65.3134 50.8553 66.7231 52.993C68.2971 55.3774 68.6495 59.1832 67.5805 62.014C66.406 65.0914 63.4929 67.1822 59.3934 67.8753C58.125 68.0985 55.1179 68.0632 53.7555 67.8167C50.7837 67.288 47.9647 65.8198 46.2263 63.8935C45.545 63.1417 44.2176 61.1801 44.3 61.039C44.335 60.9922 44.6405 60.8043 44.981 60.6046C45.31 60.4167 46.5552 59.7001 47.7297 59.0188L49.8558 57.7853L50.3021 58.4432C50.9247 59.3945 52.2871 60.6985 53.1094 61.133C55.4702 62.3782 58.7123 62.2019 60.3097 60.769C60.991 60.1464 61.2729 59.5003 61.2729 58.549C61.2729 57.6914 61.1671 57.3156 60.7208 56.6695C60.1452 55.8475 58.9708 55.1543 55.6347 53.7095C51.8173 52.0651 50.1729 51.0432 48.6694 49.4222C47.8002 48.4827 46.9779 46.979 46.6373 45.7222C46.3555 44.6769 46.285 42.0574 46.5081 41.0003C47.295 37.3122 50.0789 34.7398 54.096 33.9761C55.4 33.7295 58.4302 33.8235 59.7108 34.1406Z" fill="white"/>
</g>
<defs>
<clipPath id="clip0_103_22">
<rect width="74" height="74" fill="white"/>
</clipPath>
</defs>
</svg>
