<svg width="74" height="74" viewBox="0 0 74 74" fill="none" xmlns="http://www.w3.org/2000/svg">
<g clip-path="url(#clip0_103_109)">
<path d="M56.6562 0H17.3438C7.76506 0 0 7.76506 0 17.3438V56.6562C0 66.2349 7.76506 74 17.3438 74H56.6562C66.2349 74 74 66.2349 74 56.6562V17.3438C74 7.76506 66.2349 0 56.6562 0Z" fill="#F4F2ED"/>
<path d="M51.4791 26.686L37.6582 46.6691C37.5485 46.8276 37.402 46.957 37.2312 47.0463C37.0604 47.1356 36.8705 47.1821 36.6778 47.1818C36.4851 47.1815 36.2953 47.1345 36.1248 47.0447C35.9543 46.9549 35.8082 46.825 35.6989 46.6662C35.5539 46.4539 35.4822 46.1999 35.4949 45.943L36.0481 34.9101L27.1184 33.0164C26.928 32.9761 26.7504 32.8895 26.6014 32.7642C26.4524 32.639 26.3365 32.479 26.2639 32.2984C26.1918 32.1178 26.1656 31.9222 26.1875 31.729C26.2095 31.5358 26.2789 31.3511 26.3897 31.1913L40.2109 11.2081C40.358 10.996 40.5699 10.8374 40.8148 10.756C41.0598 10.6747 41.3245 10.6751 41.5692 10.7572C41.8136 10.8391 42.0246 10.9985 42.1702 11.2113C42.3153 11.4236 42.3869 11.6776 42.374 11.9345L41.8207 22.9675L50.7504 24.8608C50.9412 24.9012 51.1191 24.988 51.2684 25.1135C51.4933 25.3021 51.6396 25.568 51.6785 25.8589C51.7175 26.1498 51.6464 26.4448 51.4791 26.686Z" fill="#FCC72B"/>
<path d="M37.0055 63.4351C36.6379 63.4354 36.2739 63.3633 35.9342 63.2229C35.5947 63.082 35.2863 62.8757 35.0266 62.6156L21.9673 49.5572C21.5775 49.1655 21.3125 48.6672 21.2055 48.1251C21.0986 47.583 21.1545 47.0214 21.3663 46.511C21.578 46.0007 21.9362 45.5644 22.3955 45.2573C22.8548 44.9502 23.3948 44.786 23.9474 44.7853C24.6883 44.7843 25.3993 45.0771 25.9246 45.5996L37.0055 56.6791L61.1451 32.5406C61.6714 32.0231 62.3808 31.7344 63.1189 31.7374C63.857 31.7404 64.5641 32.0348 65.0862 32.5565C65.6083 33.0786 65.903 33.7858 65.9062 34.5242C65.9089 35.2623 65.62 35.9717 65.1024 36.4979L38.9838 62.6156C38.7245 62.876 38.4162 63.0825 38.0766 63.2231C37.7371 63.3638 37.373 63.4358 37.0055 63.4351Z" fill="#729B1B"/>
<path d="M36.9942 63.4351C37.3618 63.4354 37.7258 63.3633 38.0655 63.2229C38.405 63.082 38.7134 62.8757 38.9731 62.6156L52.0324 49.5572C52.2923 49.2973 52.4984 48.9888 52.639 48.6493C52.7796 48.3098 52.852 47.9459 52.852 47.5784C52.852 47.2109 52.7796 46.847 52.639 46.5075C52.4984 46.168 52.2923 45.8595 52.0324 45.5996C51.7725 45.3397 51.464 45.1336 51.1245 44.993C50.785 44.8524 50.4211 44.78 50.0536 44.78C49.6861 44.78 49.3222 44.8524 48.9827 44.993C48.6432 45.1336 48.3347 45.3397 48.0748 45.5996L36.9942 56.6791L12.8546 32.5406C12.3283 32.0231 11.6189 31.7344 10.8808 31.7374C10.1427 31.7404 9.43562 32.0348 8.91352 32.5565C8.39163 33.0786 8.09711 33.7857 8.09408 34.5239C8.09105 35.2621 8.37975 35.9716 8.89733 36.4979L35.0159 62.6156C35.2754 62.8757 35.5838 63.082 35.9233 63.2227C36.2628 63.3633 36.6267 63.4355 36.9942 63.4351Z" fill="#729B1B" fill-opacity="0.5"/>
</g>
<defs>
<clipPath id="clip0_103_109">
<rect width="74" height="74" fill="white"/>
</clipPath>
</defs>
</svg>
