<svg width="78" height="78" viewBox="0 0 78 78" fill="none" xmlns="http://www.w3.org/2000/svg">
<g clip-path="url(#clip0_103_117)">
<path d="M59.7188 0H18.2812C8.18479 0 0 8.18479 0 18.2812V59.7188C0 69.8152 8.18479 78 18.2812 78H59.7188C69.8152 78 78 69.8152 78 59.7188V18.2812C78 8.18479 69.8152 0 59.7188 0Z" fill="#F4F2ED"/>
<path d="M10.2728 30.5321C10.2728 30.5321 8.83015 29.4922 10.5614 28.1038L14.5942 24.4975C14.5942 24.4975 15.7484 23.2833 16.9684 24.3412L54.1856 52.5184V66.0301C54.1856 66.0301 54.1676 68.1519 51.4447 67.9173L10.2728 30.5321Z" fill="#2489CA"/>
<path d="M19.8656 39.2413L10.2729 47.9624C10.2729 47.9624 9.2869 48.6958 10.2729 50.0062L14.7265 54.057C14.7265 54.057 15.7844 55.1932 17.3471 53.9007L27.517 46.1894L19.8656 39.2413Z" fill="#1070B3"/>
<path d="M36.707 39.3135L54.2999 25.8799L54.1857 12.4404C54.1857 12.4404 53.4343 9.50717 50.9279 11.034L27.517 32.3411L36.707 39.3135Z" fill="#0877B9"/>
<path d="M51.4446 67.9356C52.4665 68.9813 53.7048 68.6388 53.7048 68.6388L67.4148 61.883C69.1698 60.6868 68.9233 59.2023 68.9233 59.2023V18.8596C68.9233 17.0863 67.108 16.4736 67.108 16.4736L55.2255 10.7454C52.6289 9.14064 50.9279 11.034 50.9279 11.034C50.9279 11.034 53.1155 9.45934 54.1856 12.4404V65.7836C54.1872 66.1474 54.1072 66.5069 53.9513 66.8357C53.6387 67.4667 52.9595 68.0556 51.3307 67.8091L51.4446 67.9356Z" fill="#3C99D4"/>
</g>
<defs>
<clipPath id="clip0_103_117">
<rect width="78" height="78" fill="white"/>
</clipPath>
</defs>
</svg>
